<svg id="my-svg" width="100%" xmlns="http://www.w3.org/2000/svg" xmlns:xlink="http://www.w3.org/1999/xlink" class="flowchart" style="max-width: 1711.34px; background-color: white;" viewBox="0 0 1711.33984375 1108" role="graphics-document document" aria-roledescription="flowchart-v2"><style>#my-svg{font-family:"trebuchet ms",verdana,arial,sans-serif;font-size:16px;fill:#333;}@keyframes edge-animation-frame{from{stroke-dashoffset:0;}}@keyframes dash{to{stroke-dashoffset:0;}}#my-svg .edge-animation-slow{stroke-dasharray:9,5!important;stroke-dashoffset:900;animation:dash 50s linear infinite;stroke-linecap:round;}#my-svg .edge-animation-fast{stroke-dasharray:9,5!important;stroke-dashoffset:900;animation:dash 20s linear infinite;stroke-linecap:round;}#my-svg .error-icon{fill:#552222;}#my-svg .error-text{fill:#552222;stroke:#552222;}#my-svg .edge-thickness-normal{stroke-width:1px;}#my-svg .edge-thickness-thick{stroke-width:3.5px;}#my-svg .edge-pattern-solid{stroke-dasharray:0;}#my-svg .edge-thickness-invisible{stroke-width:0;fill:none;}#my-svg .edge-pattern-dashed{stroke-dasharray:3;}#my-svg .edge-pattern-dotted{stroke-dasharray:2;}#my-svg .marker{fill:#333333;stroke:#333333;}#my-svg .marker.cross{stroke:#333333;}#my-svg svg{font-family:"trebuchet ms",verdana,arial,sans-serif;font-size:16px;}#my-svg p{margin:0;}#my-svg .label{font-family:"trebuchet ms",verdana,arial,sans-serif;color:#333;}#my-svg .cluster-label text{fill:#333;}#my-svg .cluster-label span{color:#333;}#my-svg .cluster-label span p{background-color:transparent;}#my-svg .label text,#my-svg span{fill:#333;color:#333;}#my-svg .node rect,#my-svg .node circle,#my-svg .node ellipse,#my-svg .node polygon,#my-svg .node path{fill:#ECECFF;stroke:#9370DB;stroke-width:1px;}#my-svg .rough-node .label text,#my-svg .node .label text,#my-svg .image-shape .label,#my-svg .icon-shape .label{text-anchor:middle;}#my-svg .node .katex path{fill:#000;stroke:#000;stroke-width:1px;}#my-svg .rough-node .label,#my-svg .node .label,#my-svg .image-shape .label,#my-svg .icon-shape .label{text-align:center;}#my-svg .node.clickable{cursor:pointer;}#my-svg .root .anchor path{fill:#333333!important;stroke-width:0;stroke:#333333;}#my-svg .arrowheadPath{fill:#333333;}#my-svg .edgePath .path{stroke:#333333;stroke-width:1px;}#my-svg .flowchart-link{stroke:#333333;fill:none;}#my-svg .edgeLabel{background-color:rgba(232,232,232, 0.8);text-align:center;}#my-svg .edgeLabel p{background-color:rgba(232,232,232, 0.8);}#my-svg .edgeLabel rect{opacity:0.5;background-color:rgba(232,232,232, 0.8);fill:rgba(232,232,232, 0.8);}#my-svg .labelBkg{background-color:rgba(232, 232, 232, 0.5);}#my-svg .cluster rect{fill:#ffffde;stroke:#aaaa33;stroke-width:1px;}#my-svg .cluster text{fill:#333;}#my-svg .cluster span{color:#333;}#my-svg div.mermaidTooltip{position:absolute;text-align:center;max-width:200px;padding:2px;font-family:"trebuchet ms",verdana,arial,sans-serif;font-size:12px;background:hsl(80, 100%, 96.2745098039%);border:1px solid #aaaa33;border-radius:2px;pointer-events:none;z-index:100;}#my-svg .flowchartTitleText{text-anchor:middle;font-size:18px;fill:#333;}#my-svg rect.text{fill:none;stroke-width:0;}#my-svg .icon-shape,#my-svg .image-shape{background-color:rgba(232,232,232, 0.8);text-align:center;}#my-svg .icon-shape p,#my-svg .image-shape p{background-color:rgba(232,232,232, 0.8);padding:2px;}#my-svg .icon-shape .label rect,#my-svg .image-shape .label rect{opacity:0.5;background-color:rgba(232,232,232, 0.8);fill:rgba(232,232,232, 0.8);}#my-svg .label-icon{display:inline-block;height:1em;overflow:visible;vertical-align:-0.125em;}#my-svg .node .label-icon path{fill:currentColor;stroke:revert;stroke-width:revert;}#my-svg .node .neo-node{stroke:#9370DB;}#my-svg [data-look="neo"].node rect,#my-svg [data-look="neo"].cluster rect,#my-svg [data-look="neo"].node polygon{stroke:#9370DB;filter:drop-shadow(1px 2px 2px rgba(185, 185, 185, 1));}#my-svg [data-look="neo"].node path{stroke:#9370DB;stroke-width:1px;}#my-svg [data-look="neo"].node .outer-path{filter:drop-shadow(1px 2px 2px rgba(185, 185, 185, 1));}#my-svg [data-look="neo"].node .neo-line path{stroke:#9370DB;filter:none;}#my-svg [data-look="neo"].node circle{stroke:#9370DB;filter:drop-shadow(1px 2px 2px rgba(185, 185, 185, 1));}#my-svg [data-look="neo"].node circle .state-start{fill:#000000;}#my-svg [data-look="neo"].icon-shape .icon{fill:#9370DB;filter:drop-shadow(1px 2px 2px rgba(185, 185, 185, 1));}#my-svg [data-look="neo"].icon-shape .icon-neo path{stroke:#9370DB;filter:drop-shadow(1px 2px 2px rgba(185, 185, 185, 1));}#my-svg :root{--mermaid-font-family:"trebuchet ms",verdana,arial,sans-serif;}</style><g><marker id="my-svg_flowchart-v2-pointEnd" class="marker flowchart-v2" viewBox="0 0 10 10" refX="5" refY="5" markerUnits="userSpaceOnUse" markerWidth="8" markerHeight="8" orient="auto"><path d="M 0 0 L 10 5 L 0 10 z" class="arrowMarkerPath" style="stroke-width: 1; stroke-dasharray: 1, 0;"/></marker><marker id="my-svg_flowchart-v2-pointStart" class="marker flowchart-v2" viewBox="0 0 10 10" refX="4.5" refY="5" markerUnits="userSpaceOnUse" markerWidth="8" markerHeight="8" orient="auto"><path d="M 0 5 L 10 10 L 10 0 z" class="arrowMarkerPath" style="stroke-width: 1; stroke-dasharray: 1, 0;"/></marker><marker id="my-svg_flowchart-v2-pointEnd-margin" class="marker flowchart-v2" viewBox="0 0 11.5 14" refX="11.5" refY="7" markerUnits="userSpaceOnUse" markerWidth="10.5" markerHeight="14" orient="auto"><path d="M 0 0 L 11.5 7 L 0 14 z" class="arrowMarkerPath" style="stroke-width: 0; stroke-dasharray: 1, 0;"/></marker><marker id="my-svg_flowchart-v2-pointStart-margin" class="marker flowchart-v2" viewBox="0 0 11.5 14" refX="1" refY="7" markerUnits="userSpaceOnUse" markerWidth="11.5" markerHeight="14" orient="auto"><polygon points="0,7 11.5,14 11.5,0" class="arrowMarkerPath" style="stroke-width: 0; stroke-dasharray: 1, 0;"/></marker><marker id="my-svg_flowchart-v2-circleEnd" class="marker flowchart-v2" viewBox="0 0 10 10" refX="11" refY="5" markerUnits="userSpaceOnUse" markerWidth="11" markerHeight="11" orient="auto"><circle cx="5" cy="5" r="5" class="arrowMarkerPath" style="stroke-width: 1; stroke-dasharray: 1, 0;"/></marker><marker id="my-svg_flowchart-v2-circleStart" class="marker flowchart-v2" viewBox="0 0 10 10" refX="-1" refY="5" markerUnits="userSpaceOnUse" markerWidth="11" markerHeight="11" orient="auto"><circle cx="5" cy="5" r="5" class="arrowMarkerPath" style="stroke-width: 1; stroke-dasharray: 1, 0;"/></marker><marker id="my-svg_flowchart-v2-circleEnd-margin" class="marker flowchart-v2" viewBox="0 0 10 10" refY="5" refX="12.25" markerUnits="userSpaceOnUse" markerWidth="14" markerHeight="14" orient="auto"><circle cx="5" cy="5" r="5" class="arrowMarkerPath" style="stroke-width: 0; stroke-dasharray: 1, 0;"/></marker><marker id="my-svg_flowchart-v2-circleStart-margin" class="marker flowchart-v2" viewBox="0 0 10 10" refX="-2" refY="5" markerUnits="userSpaceOnUse" markerWidth="14" markerHeight="14" orient="auto"><circle cx="5" cy="5" r="5" class="arrowMarkerPath" style="stroke-width: 0; stroke-dasharray: 1, 0;"/></marker><marker id="my-svg_flowchart-v2-crossEnd" class="marker cross flowchart-v2" viewBox="0 0 11 11" refX="12" refY="5.2" markerUnits="userSpaceOnUse" markerWidth="11" markerHeight="11" orient="auto"><path d="M 1,1 l 9,9 M 10,1 l -9,9" class="arrowMarkerPath" style="stroke-width: 2; stroke-dasharray: 1, 0;"/></marker><marker id="my-svg_flowchart-v2-crossStart" class="marker cross flowchart-v2" viewBox="0 0 11 11" refX="-1" refY="5.2" markerUnits="userSpaceOnUse" markerWidth="11" markerHeight="11" orient="auto"><path d="M 1,1 l 9,9 M 10,1 l -9,9" class="arrowMarkerPath" style="stroke-width: 2; stroke-dasharray: 1, 0;"/></marker><marker id="my-svg_flowchart-v2-crossEnd-margin" class="marker cross flowchart-v2" viewBox="0 0 15 15" refX="17.7" refY="7.5" markerUnits="userSpaceOnUse" markerWidth="12" markerHeight="12" orient="auto"><path d="M 1,1 L 14,14 M 1,14 L 14,1" class="arrowMarkerPath" style="stroke-width: 2.5;"/></marker><marker id="my-svg_flowchart-v2-crossStart-margin" class="marker cross flowchart-v2" viewBox="0 0 15 15" refX="-3.5" refY="7.5" markerUnits="userSpaceOnUse" markerWidth="12" markerHeight="12" orient="auto"><path d="M 1,1 L 14,14 M 1,14 L 14,1" class="arrowMarkerPath" style="stroke-width: 2.5; stroke-dasharray: 1, 0;"/></marker><g class="root"><g class="clusters"><g class="cluster" id="my-svg-KGSTACK" data-look="classic"><rect style="" x="1256.18359375" y="499" width="330" height="601"/><g class="cluster-label" transform="translate(1307.88671875, 499)"><foreignObject width="226.59375" height="24"><div xmlns="http://www.w3.org/1999/xhtml" style="display: table-cell; white-space: nowrap; line-height: 1.5;"><span class="nodeLabel"><p>Knowledge Graph Stack (Neo4j)</p></span></div></foreignObject></g></g><g class="cluster" id="my-svg-OBS" data-look="classic"><rect style="" x="54.15234375" y="499" width="1182.03125" height="248"/><g class="cluster-label" transform="translate(597.98828125, 499)"><foreignObject width="94.359375" height="24"><div xmlns="http://www.w3.org/1999/xhtml" style="display: table-cell; white-space: nowrap; line-height: 1.5;"><span class="nodeLabel"><p>Observability</p></span></div></foreignObject></g></g><g class="cluster" id="my-svg-HUB" data-look="classic"><rect style="" x="8" y="121" width="1695.33984375" height="328"/><g class="cluster-label" transform="translate(798.888671875, 121)"><foreignObject width="113.5625" height="24"><div xmlns="http://www.w3.org/1999/xhtml" style="display: table-cell; white-space: nowrap; line-height: 1.5;"><span class="nodeLabel"><p>Hub StateGraph</p></span></div></foreignObject></g></g></g><g class="edgePaths"><path d="M558.066,223.13L491.164,233.442C424.262,243.753,290.457,264.377,223.555,280.188C156.652,296,156.652,307,156.652,312.5L156.652,318" id="my-svg-L_ROUTER_COACH_0" class="edge-thickness-normal edge-pattern-solid edge-thickness-normal edge-pattern-solid flowchart-link" style=";" data-edge="true" data-et="edge" data-id="L_ROUTER_COACH_0" data-points="W3sieCI6NTU4LjA2NjQwNjI1LCJ5IjoyMjMuMTI5OTEwNjQ3MDkwMn0seyJ4IjoxNTYuNjUyMzQzNzUsInkiOjI4NX0seyJ4IjoxNTYuNjUyMzQzNzUsInkiOjMyMn1d" data-look="classic" marker-end="url(#my-svg_flowchart-v2-pointEnd)"/><path d="M558.066,245.141L534.672,251.784C511.277,258.427,464.488,271.714,441.094,283.857C417.699,296,417.699,307,417.699,312.5L417.699,318" id="my-svg-L_ROUTER_GEN_0" class="edge-thickness-normal edge-pattern-solid edge-thickness-normal edge-pattern-solid flowchart-link" style=";" data-edge="true" data-et="edge" data-id="L_ROUTER_GEN_0" data-points="W3sieCI6NTU4LjA2NjQwNjI1LCJ5IjoyNDUuMTQwNzcxOTI2Mjg2MzN9LHsieCI6NDE3LjY5OTIxODc1LCJ5IjoyODV9LHsieCI6NDE3LjY5OTIxODc1LCJ5IjozMjJ9XQ==" data-look="classic" marker-end="url(#my-svg_flowchart-v2-pointEnd)"/><path d="M710.347,248L708.261,254.167C706.175,260.333,702.004,272.667,699.918,284.333C697.832,296,697.832,307,697.832,312.5L697.832,318" id="my-svg-L_ROUTER_LOG_0" class="edge-thickness-normal edge-pattern-solid edge-thickness-normal edge-pattern-solid flowchart-link" style=";" data-edge="true" data-et="edge" data-id="L_ROUTER_LOG_0" data-points="W3sieCI6NzEwLjM0NzEyMzU3OTU0NTUsInkiOjI0OH0seyJ4Ijo2OTcuODMyMDMxMjUsInkiOjI4NX0seyJ4Ijo2OTcuODMyMDMxMjUsInkiOjMyMn1d" data-look="classic" marker-end="url(#my-svg_flowchart-v2-pointEnd)"/><path d="M897.129,247.63L917.984,253.859C938.839,260.087,980.548,272.543,1001.403,284.272C1022.258,296,1022.258,307,1022.258,312.5L1022.258,318" id="my-svg-L_ROUTER_KG_0" class="edge-thickness-normal edge-pattern-solid edge-thickness-normal edge-pattern-solid flowchart-link" style=";" data-edge="true" data-et="edge" data-id="L_ROUTER_KG_0" data-points="W3sieCI6ODk3LjEyODkwNjI1LCJ5IjoyNDcuNjMwMzYwNzE3NDU3ODh9LHsieCI6MTAyMi4yNTc4MTI1LCJ5IjoyODV9LHsieCI6MTAyMi4yNTc4MTI1LCJ5IjozMjJ9XQ==" data-look="classic" marker-end="url(#my-svg_flowchart-v2-pointEnd)"/><path d="M897.129,223.658L962.145,233.882C1027.16,244.106,1157.191,264.553,1222.207,282.276C1287.223,300,1287.223,315,1287.223,322.5L1287.223,330" id="my-svg-L_ROUTER_CLARIFY_0" class="edge-thickness-normal edge-pattern-solid edge-thickness-normal edge-pattern-solid flowchart-link" style=";" data-edge="true" data-et="edge" data-id="L_ROUTER_CLARIFY_0" data-points="W3sieCI6ODk3LjEyODkwNjI1LCJ5IjoyMjMuNjU4NDc2NjU4NDc2Njd9LHsieCI6MTI4Ny4yMjI2NTYyNSwieSI6Mjg1fSx7IngiOjEyODcuMjIyNjU2MjUsInkiOjMzNH1d" data-look="classic" marker-end="url(#my-svg_flowchart-v2-pointEnd)"/><path d="M897.129,215.463L1003.543,227.053C1109.957,238.642,1322.785,261.821,1429.199,280.911C1535.613,300,1535.613,315,1535.613,322.5L1535.613,330" id="my-svg-L_ROUTER_FB_0" class="edge-thickness-normal edge-pattern-solid edge-thickness-normal edge-pattern-solid flowchart-link" style=";" data-edge="true" data-et="edge" data-id="L_ROUTER_FB_0" data-points="W3sieCI6ODk3LjEyODkwNjI1LCJ5IjoyMTUuNDYzNDQyNDYxMjc2NjZ9LHsieCI6MTUzNS42MTMyODEyNSwieSI6Mjg1fSx7IngiOjE1MzUuNjEzMjgxMjUsInkiOjMzNH1d" data-look="classic" marker-end="url(#my-svg_flowchart-v2-pointEnd)"/><path d="M156.652,424L156.652,428.167C156.652,432.333,156.652,440.667,156.652,449C156.652,457.333,156.652,465.667,156.652,474C156.652,482.333,156.652,490.667,229.492,510.653C302.331,530.639,448.01,562.278,520.849,578.098L593.689,593.917" id="my-svg-L_COACH_AUDIT_0" class="edge-thickness-normal edge-pattern-solid edge-thickness-normal edge-pattern-solid flowchart-link" style=";" data-edge="true" data-et="edge" data-id="L_COACH_AUDIT_0" data-points="W3sieCI6MTU2LjY1MjM0Mzc1LCJ5Ijo0MjR9LHsieCI6MTU2LjY1MjM0Mzc1LCJ5Ijo0NDl9LHsieCI6MTU2LjY1MjM0Mzc1LCJ5Ijo0NzR9LHsieCI6MTU2LjY1MjM0Mzc1LCJ5Ijo0OTl9LHsieCI6NTk3LjU5NzY1NjI1LCJ5Ijo1OTQuNzY2MTIyNTIxNTg1N31d" data-look="classic" marker-end="url(#my-svg_flowchart-v2-pointEnd)"/><path d="M417.699,424L417.699,428.167C417.699,432.333,417.699,440.667,417.699,449C417.699,457.333,417.699,465.667,417.699,474C417.699,482.333,417.699,490.667,447.063,506.583C476.427,522.499,535.156,545.998,564.52,557.747L593.884,569.497" id="my-svg-L_GEN_AUDIT_0" class="edge-thickness-normal edge-pattern-solid edge-thickness-normal edge-pattern-solid flowchart-link" style=";" data-edge="true" data-et="edge" data-id="L_GEN_AUDIT_0" data-points="W3sieCI6NDE3LjY5OTIxODc1LCJ5Ijo0MjR9LHsieCI6NDE3LjY5OTIxODc1LCJ5Ijo0NDl9LHsieCI6NDE3LjY5OTIxODc1LCJ5Ijo0NzR9LHsieCI6NDE3LjY5OTIxODc1LCJ5Ijo0OTl9LHsieCI6NTk3LjU5NzY1NjI1LCJ5Ijo1NzAuOTgyOTU4MTI2NDAyM31d" data-look="classic" marker-end="url(#my-svg_flowchart-v2-pointEnd)"/><path d="M697.832,424L697.832,428.167C697.832,432.333,697.832,440.667,697.832,449C697.832,457.333,697.832,465.667,697.832,474C697.832,482.333,697.832,490.667,698.677,498.352C699.521,506.037,701.21,513.074,702.055,516.592L702.9,520.11" id="my-svg-L_LOG_AUDIT_0" class="edge-thickness-normal edge-pattern-solid edge-thickness-normal edge-pattern-solid flowchart-link" style=";" data-edge="true" data-et="edge" data-id="L_LOG_AUDIT_0" data-points="W3sieCI6Njk3LjgzMjAzMTI1LCJ5Ijo0MjR9LHsieCI6Njk3LjgzMjAzMTI1LCJ5Ijo0NDl9LHsieCI6Njk3LjgzMjAzMTI1LCJ5Ijo0NzR9LHsieCI6Njk3LjgzMjAzMTI1LCJ5Ijo0OTl9LHsieCI6NzAzLjgzMzE2NTMyMjU4MDYsInkiOjUyNH1d" data-look="classic" marker-end="url(#my-svg_flowchart-v2-pointEnd)"/><path d="M909.797,421.84L899.374,426.367C888.951,430.893,868.104,439.947,857.681,448.64C847.258,457.333,847.258,465.667,847.258,474C847.258,482.333,847.258,490.667,843.7,498.52C840.142,506.374,833.026,513.748,829.468,517.435L825.91,521.122" id="my-svg-L_KG_AUDIT_0" class="edge-thickness-normal edge-pattern-solid edge-thickness-normal edge-pattern-solid flowchart-link" style=";" data-edge="true" data-et="edge" data-id="L_KG_AUDIT_0" data-points="W3sieCI6OTA5Ljc5Njg3NSwieSI6NDIxLjg0MDE3ODU3MTQyODU3fSx7IngiOjg0Ny4yNTc4MTI1LCJ5Ijo0NDl9LHsieCI6ODQ3LjI1NzgxMjUsInkiOjQ3NH0seyJ4Ijo4NDcuMjU3ODEyNSwieSI6NDk5fSx7IngiOjgyMy4xMzI3ODA5OTc5ODM5LCJ5Ijo1MjR9XQ==" data-look="classic" marker-end="url(#my-svg_flowchart-v2-pointEnd)"/><path d="M1287.223,412L1287.223,418.167C1287.223,424.333,1287.223,436.667,1287.223,447C1287.223,457.333,1287.223,465.667,1240.934,474C1194.645,482.333,1102.066,490.667,1031.072,505.701C960.079,520.735,910.669,542.469,885.964,553.337L861.259,564.204" id="my-svg-L_CLARIFY_AUDIT_0" class="edge-thickness-normal edge-pattern-solid edge-thickness-normal edge-pattern-solid flowchart-link" style=";" data-edge="true" data-et="edge" data-id="L_CLARIFY_AUDIT_0" data-points="W3sieCI6MTI4Ny4yMjI2NTYyNSwieSI6NDEyfSx7IngiOjEyODcuMjIyNjU2MjUsInkiOjQ0OX0seyJ4IjoxMjg3LjIyMjY1NjI1LCJ5Ijo0NzR9LHsieCI6MTAwOS40ODgyODEyNSwieSI6NDk5fSx7IngiOjg1Ny41OTc2NTYyNSwieSI6NTY1LjgxNDY5OTg1MDM0MDh9XQ==" data-look="classic" marker-end="url(#my-svg_flowchart-v2-pointEnd)"/><path d="M1535.613,412L1535.613,418.167C1535.613,424.333,1535.613,436.667,1535.613,447C1535.613,457.333,1535.613,465.667,1470.292,474C1404.97,482.333,1274.327,490.667,1161.963,508.853C1049.599,527.039,955.515,555.077,908.473,569.096L861.431,583.116" id="my-svg-L_FB_AUDIT_0" class="edge-thickness-normal edge-pattern-solid edge-thickness-normal edge-pattern-solid flowchart-link" style=";" data-edge="true" data-et="edge" data-id="L_FB_AUDIT_0" data-points="W3sieCI6MTUzNS42MTMyODEyNSwieSI6NDEyfSx7IngiOjE1MzUuNjEzMjgxMjUsInkiOjQ0OX0seyJ4IjoxNTM1LjYxMzI4MTI1LCJ5Ijo0NzR9LHsieCI6MTE0My42ODM1OTM3NSwieSI6NDk5fSx7IngiOjg1Ny41OTc2NTYyNSwieSI6NTg0LjI1ODAwMzM0MjE1ODJ9XQ==" data-look="classic" marker-end="url(#my-svg_flowchart-v2-pointEnd)"/><path d="M1421.184,698L1421.184,706.167C1421.184,714.333,1421.184,730.667,1421.184,743C1421.184,755.333,1421.184,763.667,1421.184,771.333C1421.184,779,1421.184,786,1421.184,789.5L1421.184,793" id="my-svg-L_RETRIEVAL_SAFETY_0" class="edge-thickness-normal edge-pattern-solid edge-thickness-normal edge-pattern-solid flowchart-link" style=";" data-edge="true" data-et="edge" data-id="L_RETRIEVAL_SAFETY_0" data-points="W3sieCI6MTQyMS4xODM1OTM3NSwieSI6Njk4fSx7IngiOjE0MjEuMTgzNTkzNzUsInkiOjc0N30seyJ4IjoxNDIxLjE4MzU5Mzc1LCJ5Ijo3NzJ9LHsieCI6MTQyMS4xODM1OTM3NSwieSI6Nzk3fV0=" data-look="classic" marker-end="url(#my-svg_flowchart-v2-pointEnd)"/><path d="M1421.184,923L1421.184,927.167C1421.184,931.333,1421.184,939.667,1421.184,947.333C1421.184,955,1421.184,962,1421.184,965.5L1421.184,969" id="my-svg-L_SAFETY_EXPLAIN_0" class="edge-thickness-normal edge-pattern-solid edge-thickness-normal edge-pattern-solid flowchart-link" style=";" data-edge="true" data-et="edge" data-id="L_SAFETY_EXPLAIN_0" data-points="W3sieCI6MTQyMS4xODM1OTM3NSwieSI6OTIzfSx7IngiOjE0MjEuMTgzNTkzNzUsInkiOjk0OH0seyJ4IjoxNDIxLjE4MzU5Mzc1LCJ5Ijo5NzN9XQ==" data-look="classic" marker-end="url(#my-svg_flowchart-v2-pointEnd)"/><path d="M1104.462,424L1111.178,428.167C1117.894,432.333,1131.326,440.667,1138.042,449C1144.758,457.333,1144.758,465.667,1190.829,474C1236.9,482.333,1329.042,490.667,1375.113,502.333C1421.184,514,1421.184,529,1421.184,536.5L1421.184,544" id="my-svg-L_KG_RETRIEVAL_0" class="edge-thickness-normal edge-pattern-solid edge-thickness-normal edge-pattern-solid flowchart-link" style=";" data-edge="true" data-et="edge" data-id="L_KG_RETRIEVAL_0" data-points="W3sieCI6MTEwNC40NjE3NTk4Njg0MjEsInkiOjQyNH0seyJ4IjoxMTQ0Ljc1NzgxMjUsInkiOjQ0OX0seyJ4IjoxMTQ0Ljc1NzgxMjUsInkiOjQ3NH0seyJ4IjoxNDIxLjE4MzU5Mzc1LCJ5Ijo0OTl9LHsieCI6MTQyMS4xODM1OTM3NSwieSI6NTQ4fV0=" data-look="classic" marker-end="url(#my-svg_flowchart-v2-pointEnd)"/><path d="M727.598,47L727.598,53.167C727.598,59.333,727.598,71.667,727.598,83.333C727.598,95,727.598,106,727.598,111.5L727.598,117" id="my-svg-L_User_HUB_0" class="edge-thickness-normal edge-pattern-solid edge-thickness-normal edge-pattern-solid flowchart-link" style=";" data-edge="true" data-et="edge" data-id="L_User_HUB_0" data-points="W3sieCI6NzI4LjA5NzY1NjI1LCJ5Ijo0Ny41MDAwMDAwMDAwMDAwNH0seyJ4Ijo3MjcuNTk3NjU2MjUsInkiOjg0fSx7IngiOjcyNy41OTc2NTYyNSwieSI6MTIxfSx7IngiOjcyNy41OTc2NTYyNSwieSI6MTQ2fV0=" data-look="classic" marker-end="url(#my-svg_flowchart-v2-pointEnd)"/></g><g class="edgeLabels"><g class="edgeLabel" transform="translate(156.65234375, 285)"><g class="label" data-id="L_ROUTER_COACH_0" transform="translate(-24.9140625, -12)"><foreignObject width="49.828125" height="24"><div xmlns="http://www.w3.org/1999/xhtml" class="labelBkg" style="display: table-cell; white-space: nowrap; line-height: 1.5; max-width: 200px; text-align: center;"><span class="edgeLabel"><p>COACH</p></span></div></foreignObject></g></g><g class="edgeLabel" transform="translate(417.69921875, 285)"><g class="label" data-id="L_ROUTER_GEN_0" transform="translate(-77.5, -12)"><foreignObject width="155" height="24"><div xmlns="http://www.w3.org/1999/xhtml" class="labelBkg" style="display: table-cell; white-space: nowrap; line-height: 1.5; max-width: 200px; text-align: center;"><span class="edgeLabel"><p>WORKOUT_GENERATE</p></span></div></foreignObject></g></g><g class="edgeLabel" transform="translate(697.83203125, 285)"><g class="label" data-id="L_ROUTER_LOG_0" transform="translate(-55.7421875, -12)"><foreignObject width="111.484375" height="24"><div xmlns="http://www.w3.org/1999/xhtml" class="labelBkg" style="display: table-cell; white-space: nowrap; line-height: 1.5; max-width: 200px; text-align: center;"><span class="edgeLabel"><p>WORKOUT_LOG</p></span></div></foreignObject></g></g><g class="edgeLabel" transform="translate(1022.2578125, 285)"><g class="label" data-id="L_ROUTER_KG_0" transform="translate(-73.53125, -12)"><foreignObject width="147.0625" height="24"><div xmlns="http://www.w3.org/1999/xhtml" class="labelBkg" style="display: table-cell; white-space: nowrap; line-height: 1.5; max-width: 200px; text-align: center;"><span class="edgeLabel"><p>KNOWLEDGE_GRAPH</p></span></div></foreignObject></g></g><g class="edgeLabel" transform="translate(1287.22265625, 285)"><g class="label" data-id="L_ROUTER_CLARIFY_0" transform="translate(-59.7265625, -12)"><foreignObject width="119.453125" height="24"><div xmlns="http://www.w3.org/1999/xhtml" class="labelBkg" style="display: table-cell; white-space: nowrap; line-height: 1.5; max-width: 200px; text-align: center;"><span class="edgeLabel"><p>confidence &lt; 0.6</p></span></div></foreignObject></g></g><g class="edgeLabel" transform="translate(1535.61328125, 285)"><g class="label" data-id="L_ROUTER_FB_0" transform="translate(-34.8125, -12)"><foreignObject width="69.625" height="24"><div xmlns="http://www.w3.org/1999/xhtml" class="labelBkg" style="display: table-cell; white-space: nowrap; line-height: 1.5; max-width: 200px; text-align: center;"><span class="edgeLabel"><p>FALLBACK</p></span></div></foreignObject></g></g><g class="edgeLabel"><g class="label" data-id="L_COACH_AUDIT_0" transform="translate(0, 0)"><foreignObject width="0" height="0"><div xmlns="http://www.w3.org/1999/xhtml" class="labelBkg" style="display: table-cell; white-space: nowrap; line-height: 1.5; max-width: 200px; text-align: center;"><span class="edgeLabel"></span></div></foreignObject></g></g><g class="edgeLabel"><g class="label" data-id="L_GEN_AUDIT_0" transform="translate(0, 0)"><foreignObject width="0" height="0"><div xmlns="http://www.w3.org/1999/xhtml" class="labelBkg" style="display: table-cell; white-space: nowrap; line-height: 1.5; max-width: 200px; text-align: center;"><span class="edgeLabel"></span></div></foreignObject></g></g><g class="edgeLabel"><g class="label" data-id="L_LOG_AUDIT_0" transform="translate(0, 0)"><foreignObject width="0" height="0"><div xmlns="http://www.w3.org/1999/xhtml" class="labelBkg" style="display: table-cell; white-space: nowrap; line-height: 1.5; max-width: 200px; text-align: center;"><span class="edgeLabel"></span></div></foreignObject></g></g><g class="edgeLabel"><g class="label" data-id="L_KG_AUDIT_0" transform="translate(0, 0)"><foreignObject width="0" height="0"><div xmlns="http://www.w3.org/1999/xhtml" class="labelBkg" style="display: table-cell; white-space: nowrap; line-height: 1.5; max-width: 200px; text-align: center;"><span class="edgeLabel"></span></div></foreignObject></g></g><g class="edgeLabel"><g class="label" data-id="L_CLARIFY_AUDIT_0" transform="translate(0, 0)"><foreignObject width="0" height="0"><div xmlns="http://www.w3.org/1999/xhtml" class="labelBkg" style="display: table-cell; white-space: nowrap; line-height: 1.5; max-width: 200px; text-align: center;"><span class="edgeLabel"></span></div></foreignObject></g></g><g class="edgeLabel"><g class="label" data-id="L_FB_AUDIT_0" transform="translate(0, 0)"><foreignObject width="0" height="0"><div xmlns="http://www.w3.org/1999/xhtml" class="labelBkg" style="display: table-cell; white-space: nowrap; line-height: 1.5; max-width: 200px; text-align: center;"><span class="edgeLabel"></span></div></foreignObject></g></g><g class="edgeLabel"><g class="label" data-id="L_RETRIEVAL_SAFETY_0" transform="translate(0, 0)"><foreignObject width="0" height="0"><div xmlns="http://www.w3.org/1999/xhtml" class="labelBkg" style="display: table-cell; white-space: nowrap; line-height: 1.5; max-width: 200px; text-align: center;"><span class="edgeLabel"></span></div></foreignObject></g></g><g class="edgeLabel"><g class="label" data-id="L_SAFETY_EXPLAIN_0" transform="translate(0, 0)"><foreignObject width="0" height="0"><div xmlns="http://www.w3.org/1999/xhtml" class="labelBkg" style="display: table-cell; white-space: nowrap; line-height: 1.5; max-width: 200px; text-align: center;"><span class="edgeLabel"></span></div></foreignObject></g></g><g class="edgeLabel"><g class="label" data-id="L_KG_RETRIEVAL_0" transform="translate(0, 0)"><foreignObject width="0" height="0"><div xmlns="http://www.w3.org/1999/xhtml" class="labelBkg" style="display: table-cell; white-space: nowrap; line-height: 1.5; max-width: 200px; text-align: center;"><span class="edgeLabel"></span></div></foreignObject></g></g><g class="edgeLabel" transform="translate(727.59765625, 84)"><g class="label" data-id="L_User_HUB_0" transform="translate(-60.1015625, -12)"><foreignObject width="120.203125" height="24"><div xmlns="http://www.w3.org/1999/xhtml" class="labelBkg" style="display: table-cell; white-space: nowrap; line-height: 1.5; max-width: 200px; text-align: center;"><span class="edgeLabel"><p>natural language</p></span></div></foreignObject></g></g></g><g class="nodes"><g class="node default" id="my-svg-flowchart-User-0" data-look="classic" transform="translate(727.59765625, 27.5)"><g class="basic label-container outer-path"><path d="M-44.1484375 -19.5 C-9.618115733981405 -19.5, 24.91220603203719 -19.5, 44.1484375 -19.5 C44.1484375 -19.5, 44.1484375 -19.5, 44.1484375 -19.5 C44.526926819983466 -19.4878625841929, 44.905416139966924 -19.4757251683858, 45.3978067896239 -19.45993515863156 C45.88822471815034 -19.412625130880464, 46.37864264667678 -19.36531510312937, 46.642042152847864 -19.3399052695533 C47.12147326103446 -19.262394566025463, 47.60090436922105 -19.18488386249763, 47.87603075967676 -19.140403561325776 C48.157904122117664 -19.07606780574423, 48.43977748455856 -19.011732050162685, 49.09470188623539 -18.862249829261074 C49.44686118443747 -18.757730798076576, 49.799020482639555 -18.653211766892074, 50.293047751460605 -18.50658706670804 C50.68373871613605 -18.36280918019979, 51.074429680811484 -18.21903129369154, 51.4661440951478 -18.074876768247425 C51.790610431022465 -17.93124514630759, 52.115076766897126 -17.787613524367753, 52.60917041279238 -17.568892924097174 C52.86136221468989 -17.4373246225838, 53.11355401658739 -17.305756321070433, 53.71742976407678 -16.990714730406097 C54.11752845511686 -16.74817255265671, 54.51762714615694 -16.50563037490732, 54.7863680736057 -16.342718045390892 C55.03627957104247 -16.168390603273362, 55.28619106847923 -15.994063161155836, 55.81159284457871 -15.627565626425154 C56.07822612400346 -15.414932681493475, 56.344859403428195 -15.202299736561796, 56.788891208501866 -14.848196188198123 C57.080977162953374 -14.58293145253613, 57.37306311740488 -14.317666716874138, 57.71424723676799 -14.007812326905688 C58.036181614329045 -13.675388650769944, 58.358115991890095 -13.342964974634201, 58.58385844296865 -13.10986736009568 C58.75422254467678 -12.909747992237307, 58.9245866463849 -12.709628624378935, 59.39415140812658 -12.158051136245305 C59.575332628983105 -11.915284806246344, 59.75651384983963 -11.672518476247385, 60.141796464640635 -11.156274872382312 C60.36828402242492 -10.808329163200717, 60.59477158020921 -10.460383454019123, 60.82372137860425 -10.108655082055241 C61.05842995572815 -9.691906236551137, 61.29313853285205 -9.275157391047033, 61.437123974273504 -9.019496659696287 C61.62606644398399 -8.627153578621245, 61.81500891369447 -8.234810497546203, 61.97948364880834 -7.893275190886684 C62.14459246072266 -7.48545323329659, 62.309701272636985 -7.077631275706496, 62.448571729970325 -6.734618561215508 C62.55386963657918 -6.417478043452694, 62.65916754318804 -6.100337525689881, 62.84246063421488 -5.548287939305138 C62.93978190499196 -5.177159754526571, 63.03710317576904 -4.8060315697480025, 63.15953178754556 -4.339158212148133 C63.21243335102886 -4.067519864410821, 63.265334914512145 -3.7958815166735094, 63.398482276581774 -3.1121979531509023 C63.44180420011357 -2.7762016691197213, 63.485126123645365 -2.4402053850885403, 63.55833020250937 -1.872449005199798 C63.58759469220895 -1.4166309562578066, 63.616859181908545 -0.960812907315815, 63.63841871591342 -0.6250057626472757 C63.63841871591342 -0.3578022171257016, 63.63841871591342 -0.09059867160412749, 63.63841871591342 0.625005762647271 C63.60828616993665 1.094344488788784, 63.57815362395988 1.5636832149302973, 63.55833020250937 1.8724490051997846 C63.50872028653733 2.2572137168928763, 63.459110370565305 2.6419784285859684, 63.398482276581774 3.1121979531508885 C63.33297772835315 3.448549963913699, 63.26747318012453 3.78490197467651, 63.15953178754556 4.339158212148129 C63.073884028663066 4.6657702367405856, 62.98823626978058 4.992382261333042, 62.84246063421489 5.548287939305125 C62.739597395223306 5.858095626116308, 62.636734156231725 6.16790331292749, 62.448571729970325 6.734618561215495 C62.31380707243916 7.067489870814876, 62.179042414908 7.400361180414259, 61.97948364880834 7.893275190886679 C61.84551535675524 8.171463215797187, 61.711547064702145 8.449651240707695, 61.437123974273504 9.019496659696284 C61.204219355062804 9.433042395254953, 60.971314735852104 9.846588130813624, 60.82372137860425 10.108655082055236 C60.67946357444678 10.330273807885442, 60.535205770289316 10.551892533715648, 60.14179646464064 11.156274872382301 C59.941090837464124 11.42520212814005, 59.740385210287606 11.6941293838978, 59.39415140812658 12.158051136245302 C59.139853330766606 12.456764127882852, 58.88555525340662 12.755477119520402, 58.58385844296866 13.10986736009567 C58.40638665539367 13.293121551471593, 58.228914867818666 13.476375742847516, 57.71424723676799 14.007812326905684 C57.430262980062274 14.265719315034126, 57.146278723356566 14.523626303162565, 56.78889120850189 14.848196188198111 C56.52029961039599 15.06239084016496, 56.251708012290095 15.27658549213181, 55.81159284457871 15.627565626425152 C55.420912201551694 15.900087530708344, 55.030231558524676 16.172609434991536, 54.78636807360571 16.34271804539089 C54.56177636694587 16.47886685781545, 54.33718466028603 16.615015670240012, 53.71742976407678 16.990714730406093 C53.35248458389464 17.18110639714857, 52.98753940371251 17.37149806389105, 52.60917041279239 17.56889292409717 C52.22441362313135 17.739213341475466, 51.839656833470315 17.90953375885376, 51.466144095147804 18.07487676824742 C51.09213897378877 18.212514110172986, 50.718133852429744 18.350151452098554, 50.29304775146062 18.506587066708033 C49.90537791363864 18.621645439653093, 49.51770807581666 18.736703812598154, 49.09470188623541 18.86224982926107 C48.69358803201499 18.953801448974364, 48.292474177794574 19.045353068687653, 47.876030759676766 19.140403561325773 C47.49917929937307 19.20132998290095, 47.12232783906937 19.262256404476133, 46.64204215284788 19.3399052695533 C46.2793257331568 19.37489608633058, 45.91660931346573 19.40988690310786, 45.3978067896239 19.45993515863156 C45.01891226033254 19.472085568712473, 44.640017731041176 19.484235978793382, 44.14843750000001 19.5 C44.14843750000001 19.5, 44.1484375 19.5, 44.1484375 19.5 C17.91388441167287 19.5, -8.320668676654257 19.5, -44.14843749999999 19.5 C-44.509214280782366 19.488430590849713, -44.86999106156474 19.476861181699427, -45.39780678962389 19.45993515863156 C-45.77414429304053 19.423630332289022, -46.150481796457164 19.38732550594649, -46.64204215284787 19.3399052695533 C-46.93116225306109 19.29316257391069, -47.22028235327431 19.246419878268078, -47.87603075967676 19.140403561325773 C-48.17616046040917 19.07190091566293, -48.47629016114159 19.003398270000087, -49.094701886235384 18.862249829261074 C-49.42743537248288 18.76349627709653, -49.76016885873038 18.66474272493198, -50.29304775146059 18.506587066708043 C-50.6821532226707 18.36339265645118, -51.0712586938808 18.220198246194315, -51.4661440951478 18.074876768247425 C-51.7465544746073 17.950747411339066, -52.02696485406681 17.826618054430707, -52.60917041279238 17.568892924097174 C-52.996976793680794 17.366574583589532, -53.38478317456921 17.16425624308189, -53.71742976407678 16.990714730406097 C-53.93486682964194 16.858903103458466, -54.1523038952071 16.727091476510836, -54.786368073605686 16.3427180453909 C-55.09814507274467 16.12523590740031, -55.409922071883656 15.907753769409723, -55.81159284457871 15.627565626425156 C-56.132955334125825 15.371287592826333, -56.45431782367294 15.115009559227511, -56.788891208501866 14.848196188198125 C-57.016604900838225 14.641392637792386, -57.24431859317458 14.434589087386646, -57.714247236767974 14.007812326905697 C-57.8939377876493 13.82226708025214, -58.07362833853062 13.63672183359858, -58.583858442968655 13.109867360095677 C-58.90604484058326 12.731408884532181, -59.22823123819788 12.352950408968683, -59.394151408126575 12.158051136245307 C-59.615428070881116 11.861560566872908, -59.83670473363565 11.565069997500508, -60.141796464640635 11.156274872382316 C-60.36059218516719 10.82014589077611, -60.57938790569374 10.484016909169906, -60.82372137860425 10.108655082055249 C-60.949357706227524 9.885575060302417, -61.0749940338508 9.662495038549586, -61.437123974273504 9.019496659696289 C-61.62523690650901 8.628876130937305, -61.81334983874451 8.23825560217832, -61.97948364880834 7.893275190886686 C-62.086118603580935 7.629884790951784, -62.19275355835353 7.3664943910168805, -62.448571729970325 6.73461856121551 C-62.603535818424746 6.267891416965299, -62.758499906879166 5.80116427271509, -62.84246063421488 5.5482879393051325 C-62.90825270107192 5.29739427391709, -62.97404476792896 5.046500608529047, -63.15953178754556 4.339158212148136 C-63.2088607851393 4.085864235191627, -63.258189782733034 3.8325702582351173, -63.398482276581774 3.112197953150904 C-63.4319521141154 2.8526125026071174, -63.46542195164902 2.5930270520633307, -63.55833020250937 1.872449005199809 C-63.58066376477104 1.524585745647248, -63.60299732703272 1.176722486094687, -63.63841871591342 0.6250057626472781 C-63.63841871591342 0.26516096069973716, -63.63841871591342 -0.09468384124780382, -63.63841871591342 -0.6250057626472687 C-63.614204499227704 -1.0021617328911572, -63.58999028254199 -1.3793177031350459, -63.55833020250937 -1.8724490051997822 C-63.524454621545175 -2.1351813216679654, -63.49057904058098 -2.3979136381361483, -63.398482276581774 -3.112197953150895 C-63.333702164513824 -3.4448301373382995, -63.26892205244587 -3.7774623215257037, -63.15953178754556 -4.339158212148126 C-63.06842270416464 -4.686596634006101, -62.97731362078372 -5.034035055864075, -62.84246063421489 -5.548287939305123 C-62.745647100775024 -5.83987487688421, -62.64883356733516 -6.131461814463297, -62.44857172997033 -6.734618561215485 C-62.29549419521982 -7.112723031602049, -62.14241666046931 -7.490827501988613, -61.97948364880834 -7.893275190886676 C-61.857659902300924 -8.146244807119928, -61.735836155793514 -8.399214423353177, -61.437123974273504 -9.019496659696282 C-61.266109474390085 -9.323150221335213, -61.09509497450666 -9.626803782974145, -60.82372137860425 -10.108655082055243 C-60.63297172886793 -10.401697767503146, -60.442222079131604 -10.694740452951049, -60.14179646464064 -11.156274872382308 C-59.87917022564795 -11.50817010688995, -59.61654398665525 -11.860065341397592, -59.39415140812659 -12.158051136245302 C-59.18572372444364 -12.402882153370467, -58.9772960407607 -12.647713170495631, -58.58385844296866 -13.10986736009567 C-58.406901537364256 -13.292589893564362, -58.22994463175985 -13.475312427033051, -57.714247236767996 -14.007812326905677 C-57.52550905592325 -14.179219349010257, -57.33677087507851 -14.350626371114837, -56.78889120850189 -14.848196188198107 C-56.508114400865495 -15.072108220503486, -56.2273375932291 -15.296020252808862, -55.81159284457872 -15.627565626425149 C-55.553632414557086 -15.807507655481203, -55.29567198453546 -15.987449684537257, -54.786368073605715 -16.342718045390885 C-54.36945374166726 -16.595453963472544, -53.9525394097288 -16.848189881554205, -53.71742976407679 -16.99071473040609 C-53.38088576715671 -17.166289518032578, -53.044341770236635 -17.341864305659065, -52.60917041279239 -17.56889292409717 C-52.3587146114797 -17.67976227783092, -52.108258810167015 -17.790631631564672, -51.466144095147804 -18.07487676824742 C-51.20743893058757 -18.170082660249914, -50.94873376602733 -18.265288552252407, -50.29304775146062 -18.506587066708033 C-49.85362320277583 -18.637005966171152, -49.41419865409104 -18.767424865634275, -49.09470188623541 -18.862249829261067 C-48.749306739969754 -18.941084017482236, -48.403911593704095 -19.019918205703405, -47.876030759676766 -19.140403561325773 C-47.45991254781665 -19.20767832677439, -47.043794335956534 -19.274953092223004, -46.64204215284788 -19.3399052695533 C-46.146970859714074 -19.387664201791576, -45.65189956658027 -19.43542313402985, -45.3978067896239 -19.45993515863156 C-45.12921805781613 -19.468548276484384, -44.860629326008365 -19.477161394337205, -44.14843750000001 -19.5 C-44.14843750000001 -19.5, -44.1484375 -19.5, -44.1484375 -19.5" stroke="none" stroke-width="0" fill="#ECECFF" style=""/><path d="M-44.1484375 -19.5 C-16.385314491394368 -19.5, 11.377808517211264 -19.5, 44.1484375 -19.5 M-44.1484375 -19.5 C-12.009326615095397 -19.5, 20.129784269809207 -19.5, 44.1484375 -19.5 M44.1484375 -19.5 C44.1484375 -19.5, 44.1484375 -19.5, 44.1484375 -19.5 M44.1484375 -19.5 C44.1484375 -19.5, 44.1484375 -19.5, 44.1484375 -19.5 M44.1484375 -19.5 C44.54936351113806 -19.48714308317794, 44.95028952227612 -19.474286166355885, 45.3978067896239 -19.45993515863156 M44.1484375 -19.5 C44.39985354644294 -19.491937576742224, 44.65126959288589 -19.483875153484444, 45.3978067896239 -19.45993515863156 M45.3978067896239 -19.45993515863156 C45.66608349977713 -19.434054827053025, 45.93436020993037 -19.40817449547449, 46.642042152847864 -19.3399052695533 M45.3978067896239 -19.45993515863156 C45.64845387774146 -19.435755535488084, 45.89910096585902 -19.41157591234461, 46.642042152847864 -19.3399052695533 M46.642042152847864 -19.3399052695533 C47.0094537762655 -19.28050500759883, 47.37686539968315 -19.22110474564436, 47.87603075967676 -19.140403561325776 M46.642042152847864 -19.3399052695533 C46.98669462506052 -19.284184530665797, 47.331347097273174 -19.228463791778296, 47.87603075967676 -19.140403561325776 M47.87603075967676 -19.140403561325776 C48.137297942869836 -19.08077103168966, 48.39856512606291 -19.021138502053542, 49.09470188623539 -18.862249829261074 M47.87603075967676 -19.140403561325776 C48.35831135899583 -19.030326161706228, 48.8405919583149 -18.92024876208668, 49.09470188623539 -18.862249829261074 M49.09470188623539 -18.862249829261074 C49.52193504560204 -18.73544927015367, 49.94916820496869 -18.608648711046264, 50.293047751460605 -18.50658706670804 M49.09470188623539 -18.862249829261074 C49.368045792649085 -18.781122792648933, 49.64138969906278 -18.699995756036795, 50.293047751460605 -18.50658706670804 M50.293047751460605 -18.50658706670804 C50.731519201059406 -18.34522552007003, 51.16999065065821 -18.18386397343202, 51.4661440951478 -18.074876768247425 M50.293047751460605 -18.50658706670804 C50.75778541439101 -18.335559310761788, 51.22252307732141 -18.164531554815536, 51.4661440951478 -18.074876768247425 M51.4661440951478 -18.074876768247425 C51.82459964615702 -17.916199129021766, 52.18305519716623 -17.757521489796105, 52.60917041279238 -17.568892924097174 M51.4661440951478 -18.074876768247425 C51.75065077159464 -17.9489341021751, 52.035157448041495 -17.82299143610278, 52.60917041279238 -17.568892924097174 M52.60917041279238 -17.568892924097174 C52.971025729122246 -17.380113237347274, 53.33288104545212 -17.191333550597374, 53.71742976407678 -16.990714730406097 M52.60917041279238 -17.568892924097174 C52.986537466466864 -17.37202077391033, 53.36390452014135 -17.175148623723487, 53.71742976407678 -16.990714730406097 M53.71742976407678 -16.990714730406097 C53.97714458404442 -16.833274080288025, 54.23685940401205 -16.675833430169952, 54.7863680736057 -16.342718045390892 M53.71742976407678 -16.990714730406097 C53.98793340697118 -16.826733832427657, 54.258437049865584 -16.662752934449216, 54.7863680736057 -16.342718045390892 M54.7863680736057 -16.342718045390892 C55.08061160005008 -16.13746649894026, 55.37485512649446 -15.932214952489625, 55.81159284457871 -15.627565626425154 M54.7863680736057 -16.342718045390892 C55.13325200485917 -16.10074683131183, 55.480135936112646 -15.858775617232771, 55.81159284457871 -15.627565626425154 M55.81159284457871 -15.627565626425154 C56.17795145945597 -15.335404380272724, 56.544310074333225 -15.043243134120292, 56.788891208501866 -14.848196188198123 M55.81159284457871 -15.627565626425154 C56.15074238097636 -15.357102896296226, 56.489891917374 -15.086640166167298, 56.788891208501866 -14.848196188198123 M56.788891208501866 -14.848196188198123 C57.12922586343311 -14.53911325935109, 57.46956051836436 -14.230030330504057, 57.71424723676799 -14.007812326905688 M56.788891208501866 -14.848196188198123 C57.06788752634376 -14.594819114172179, 57.34688384418565 -14.341442040146232, 57.71424723676799 -14.007812326905688 M57.71424723676799 -14.007812326905688 C57.9561635546056 -13.75801386703928, 58.198079872443216 -13.508215407172873, 58.58385844296865 -13.10986736009568 M57.71424723676799 -14.007812326905688 C58.05352457549124 -13.657480619486385, 58.39280191421449 -13.307148912067085, 58.58385844296865 -13.10986736009568 M58.58385844296865 -13.10986736009568 C58.7459273220283 -12.91949203277175, 58.90799620108795 -12.729116705447819, 59.39415140812658 -12.158051136245305 M58.58385844296865 -13.10986736009568 C58.84034327129026 -12.808585686348941, 59.096828099611876 -12.507304012602201, 59.39415140812658 -12.158051136245305 M59.39415140812658 -12.158051136245305 C59.6909137493916 -11.760416634555646, 59.98767609065661 -11.362782132865986, 60.141796464640635 -11.156274872382312 M59.39415140812658 -12.158051136245305 C59.62325661578524 -11.851071029896502, 59.852361823443886 -11.544090923547701, 60.141796464640635 -11.156274872382312 M60.141796464640635 -11.156274872382312 C60.332662011321396 -10.863054138105058, 60.523527558002165 -10.569833403827804, 60.82372137860425 -10.108655082055241 M60.141796464640635 -11.156274872382312 C60.36087426156771 -10.819712545676792, 60.579952058494776 -10.483150218971272, 60.82372137860425 -10.108655082055241 M60.82372137860425 -10.108655082055241 C60.95831753486982 -9.869665977266985, 61.09291369113539 -9.630676872478727, 61.437123974273504 -9.019496659696287 M60.82372137860425 -10.108655082055241 C61.00204571745749 -9.792022161123931, 61.180370056310736 -9.475389240192621, 61.437123974273504 -9.019496659696287 M61.437123974273504 -9.019496659696287 C61.614130823176396 -8.651938150609588, 61.79113767207928 -8.28437964152289, 61.97948364880834 -7.893275190886684 M61.437123974273504 -9.019496659696287 C61.546737901259625 -8.791880994947284, 61.65635182824575 -8.56426533019828, 61.97948364880834 -7.893275190886684 M61.97948364880834 -7.893275190886684 C62.12756792926142 -7.5275041551528, 62.27565220971449 -7.161733119418916, 62.448571729970325 -6.734618561215508 M61.97948364880834 -7.893275190886684 C62.09647779795733 -7.604297380560691, 62.213471947106314 -7.315319570234697, 62.448571729970325 -6.734618561215508 M62.448571729970325 -6.734618561215508 C62.59139186215437 -6.304467078375012, 62.7342119943384 -5.874315595534517, 62.84246063421488 -5.548287939305138 M62.448571729970325 -6.734618561215508 C62.557921133721585 -6.405275579578188, 62.667270537472845 -6.075932597940867, 62.84246063421488 -5.548287939305138 M62.84246063421488 -5.548287939305138 C62.9430080612499 -5.164857022490071, 63.04355548828492 -4.781426105675003, 63.15953178754556 -4.339158212148133 M62.84246063421488 -5.548287939305138 C62.94309244479378 -5.1645352314652175, 63.04372425537267 -4.780782523625297, 63.15953178754556 -4.339158212148133 M63.15953178754556 -4.339158212148133 C63.23873978120495 -3.932441905322561, 63.31794777486434 -3.5257255984969893, 63.398482276581774 -3.1121979531509023 M63.15953178754556 -4.339158212148133 C63.208515408977064 -4.087637668789402, 63.257499030408574 -3.83611712543067, 63.398482276581774 -3.1121979531509023 M63.398482276581774 -3.1121979531509023 C63.44309693502218 -2.766175472447888, 63.4877115934626 -2.4201529917448736, 63.55833020250937 -1.872449005199798 M63.398482276581774 -3.1121979531509023 C63.437280288847326 -2.811288231553406, 63.47607830111287 -2.5103785099559097, 63.55833020250937 -1.872449005199798 M63.55833020250937 -1.872449005199798 C63.57631172690765 -1.5923722482713694, 63.59429325130592 -1.3122954913429408, 63.63841871591342 -0.6250057626472757 M63.55833020250937 -1.872449005199798 C63.58986842072674 -1.3812157992726626, 63.621406638944116 -0.8899825933455272, 63.63841871591342 -0.6250057626472757 M63.63841871591342 -0.6250057626472757 C63.63841871591342 -0.13192538037025114, 63.63841871591342 0.3611550019067734, 63.63841871591342 0.625005762647271 M63.63841871591342 -0.6250057626472757 C63.63841871591342 -0.20513573717403, 63.63841871591342 0.2147342882992157, 63.63841871591342 0.625005762647271 M63.63841871591342 0.625005762647271 C63.60922401555579 1.0797367862553235, 63.58002931519816 1.5344678098633762, 63.55833020250937 1.8724490051997846 M63.63841871591342 0.625005762647271 C63.61169789247862 1.0412041563047185, 63.584977069043816 1.4574025499621661, 63.55833020250937 1.8724490051997846 M63.55833020250937 1.8724490051997846 C63.52326044822832 2.144443094097305, 63.48819069394727 2.4164371829948252, 63.398482276581774 3.1121979531508885 M63.55833020250937 1.8724490051997846 C63.5225122762681 2.1502457680774922, 63.48669435002683 2.4280425309552003, 63.398482276581774 3.1121979531508885 M63.398482276581774 3.1121979531508885 C63.320149215414794 3.5144216665449983, 63.241816154247815 3.9166453799391086, 63.15953178754556 4.339158212148129 M63.398482276581774 3.1121979531508885 C63.33186999690407 3.4542379307856077, 63.26525771722637 3.7962779084203273, 63.15953178754556 4.339158212148129 M63.15953178754556 4.339158212148129 C63.088714481406626 4.609215292870513, 63.0178971752677 4.8792723735928965, 62.84246063421489 5.548287939305125 M63.15953178754556 4.339158212148129 C63.09336190449165 4.591492654441412, 63.02719202143774 4.843827096734696, 62.84246063421489 5.548287939305125 M62.84246063421489 5.548287939305125 C62.750559116870285 5.825080667028765, 62.65865759952568 6.101873394752405, 62.448571729970325 6.734618561215495 M62.84246063421489 5.548287939305125 C62.716841703223345 5.926632144793031, 62.5912227722318 6.304976350280937, 62.448571729970325 6.734618561215495 M62.448571729970325 6.734618561215495 C62.31873827175245 7.055309713172792, 62.18890481353458 7.37600086513009, 61.97948364880834 7.893275190886679 M62.448571729970325 6.734618561215495 C62.26792658431119 7.1808155635298565, 62.087281438652056 7.627012565844218, 61.97948364880834 7.893275190886679 M61.97948364880834 7.893275190886679 C61.82749265141146 8.208887749067678, 61.675501654014575 8.52450030724868, 61.437123974273504 9.019496659696284 M61.97948364880834 7.893275190886679 C61.82378836356166 8.21657978204684, 61.66809307831499 8.539884373206998, 61.437123974273504 9.019496659696284 M61.437123974273504 9.019496659696284 C61.22640370690967 9.393651832141627, 61.01568343954583 9.76780700458697, 60.82372137860425 10.108655082055236 M61.437123974273504 9.019496659696284 C61.265817678479 9.323668334522875, 61.0945113826845 9.627840009349466, 60.82372137860425 10.108655082055236 M60.82372137860425 10.108655082055236 C60.64823469381779 10.378249754660187, 60.472748009031335 10.64784442726514, 60.14179646464064 11.156274872382301 M60.82372137860425 10.108655082055236 C60.577303770345345 10.48721870073374, 60.330886162086436 10.865782319412244, 60.14179646464064 11.156274872382301 M60.14179646464064 11.156274872382301 C59.929307292303704 11.440991005151966, 59.71681811996676 11.725707137921633, 59.39415140812658 12.158051136245302 M60.14179646464064 11.156274872382301 C59.91657152646449 11.458055771124375, 59.69134658828833 11.759836669866448, 59.39415140812658 12.158051136245302 M59.39415140812658 12.158051136245302 C59.14894004720411 12.446090353706545, 58.90372868628164 12.734129571167788, 58.58385844296866 13.10986736009567 M59.39415140812658 12.158051136245302 C59.230240124731814 12.350590656537038, 59.06632884133705 12.543130176828774, 58.58385844296866 13.10986736009567 M58.58385844296866 13.10986736009567 C58.31716984495941 13.385245233081324, 58.05048124695015 13.66062310606698, 57.71424723676799 14.007812326905684 M58.58385844296866 13.10986736009567 C58.23812770705018 13.466862729952807, 57.8923969711317 13.823858099809943, 57.71424723676799 14.007812326905684 M57.71424723676799 14.007812326905684 C57.41089659904898 14.283307349864033, 57.10754596132998 14.558802372822381, 56.78889120850189 14.848196188198111 M57.71424723676799 14.007812326905684 C57.38385105815761 14.307869394515778, 57.05345487954724 14.60792646212587, 56.78889120850189 14.848196188198111 M56.78889120850189 14.848196188198111 C56.46825261998011 15.10389692999304, 56.14761403145834 15.359597671787968, 55.81159284457871 15.627565626425152 M56.78889120850189 14.848196188198111 C56.52039133631939 15.062317691181978, 56.2518914641369 15.276439194165846, 55.81159284457871 15.627565626425152 M55.81159284457871 15.627565626425152 C55.60199663040057 15.773770872161949, 55.39240041622243 15.919976117898747, 54.78636807360571 16.34271804539089 M55.81159284457871 15.627565626425152 C55.548112215735294 15.81135830721373, 55.28463158689187 15.99515098800231, 54.78636807360571 16.34271804539089 M54.78636807360571 16.34271804539089 C54.52192738772687 16.503023543196605, 54.25748670184803 16.66332904100232, 53.71742976407678 16.990714730406093 M54.78636807360571 16.34271804539089 C54.364281171701386 16.59858960578325, 53.942194269797064 16.85446116617561, 53.71742976407678 16.990714730406093 M53.71742976407678 16.990714730406093 C53.32928136998848 17.19321149898105, 52.94113297590018 17.395708267556003, 52.60917041279239 17.56889292409717 M53.71742976407678 16.990714730406093 C53.346928044138785 17.184005240380067, 52.976426324200794 17.377295750354044, 52.60917041279239 17.56889292409717 M52.60917041279239 17.56889292409717 C52.158479441393645 17.76840044786274, 51.707788469994895 17.96790797162831, 51.466144095147804 18.07487676824742 M52.60917041279239 17.56889292409717 C52.19471308633138 17.75236088808169, 51.78025575987038 17.93582885206621, 51.466144095147804 18.07487676824742 M51.466144095147804 18.07487676824742 C51.14969271963719 18.191333799679775, 50.83324134412657 18.30779083111213, 50.29304775146062 18.506587066708033 M51.466144095147804 18.07487676824742 C51.11534450270872 18.20397426102089, 50.76454491026964 18.333071753794357, 50.29304775146062 18.506587066708033 M50.29304775146062 18.506587066708033 C50.02764109056105 18.585358370515035, 49.76223442966147 18.664129674322037, 49.09470188623541 18.86224982926107 M50.29304775146062 18.506587066708033 C49.87902180028244 18.62946779575115, 49.46499584910426 18.75234852479427, 49.09470188623541 18.86224982926107 M49.09470188623541 18.86224982926107 C48.725890014252606 18.94642873231876, 48.3570781422698 19.03060763537645, 47.876030759676766 19.140403561325773 M49.09470188623541 18.86224982926107 C48.65808925289285 18.96190381365781, 48.221476619550295 19.061557798054547, 47.876030759676766 19.140403561325773 M47.876030759676766 19.140403561325773 C47.39123845117488 19.218781022143855, 46.90644614267298 19.29715848296194, 46.64204215284788 19.3399052695533 M47.876030759676766 19.140403561325773 C47.54514694543804 19.193898290369585, 47.21426313119932 19.2473930194134, 46.64204215284788 19.3399052695533 M46.64204215284788 19.3399052695533 C46.15529347248942 19.386861329346544, 45.66854479213095 19.43381738913979, 45.3978067896239 19.45993515863156 M46.64204215284788 19.3399052695533 C46.34149082186486 19.36889909498737, 46.04093949088185 19.39789292042144, 45.3978067896239 19.45993515863156 M45.3978067896239 19.45993515863156 C44.921366575532815 19.47521366896284, 44.44492636144173 19.490492179294122, 44.14843750000001 19.5 M45.3978067896239 19.45993515863156 C44.95221049942754 19.474224564357595, 44.506614209231174 19.488513970083627, 44.14843750000001 19.5 M44.14843750000001 19.5 C44.14843750000001 19.5, 44.1484375 19.5, 44.1484375 19.5 M44.14843750000001 19.5 C44.14843750000001 19.5, 44.1484375 19.5, 44.1484375 19.5 M44.1484375 19.5 C9.603113791230193 19.5, -24.942209917539614 19.5, -44.14843749999999 19.5 M44.1484375 19.5 C18.648525493999205 19.5, -6.851386512001589 19.5, -44.14843749999999 19.5 M-44.14843749999999 19.5 C-44.43377365422965 19.490849824906988, -44.719109808459294 19.481699649813972, -45.39780678962389 19.45993515863156 M-44.14843749999999 19.5 C-44.57930940277368 19.48618277671933, -45.01018130554737 19.47236555343866, -45.39780678962389 19.45993515863156 M-45.39780678962389 19.45993515863156 C-45.89367392386139 19.412099452559147, -46.3895410580989 19.364263746486735, -46.64204215284787 19.3399052695533 M-45.39780678962389 19.45993515863156 C-45.78360507094436 19.42271766242289, -46.16940335226484 19.38550016621422, -46.64204215284787 19.3399052695533 M-46.64204215284787 19.3399052695533 C-46.91598322654388 19.295616601202884, -47.18992430023988 19.25132793285247, -47.87603075967676 19.140403561325773 M-46.64204215284787 19.3399052695533 C-47.12832378126531 19.261287027041117, -47.614605409682746 19.182668784528936, -47.87603075967676 19.140403561325773 M-47.87603075967676 19.140403561325773 C-48.16413028607044 19.074646724451522, -48.45222981246412 19.008889887577272, -49.094701886235384 18.862249829261074 M-47.87603075967676 19.140403561325773 C-48.21750404805701 19.062464511574436, -48.55897733643725 18.984525461823097, -49.094701886235384 18.862249829261074 M-49.094701886235384 18.862249829261074 C-49.54707971470012 18.72798646435242, -49.99945754316485 18.593723099443768, -50.29304775146059 18.506587066708043 M-49.094701886235384 18.862249829261074 C-49.43247497737581 18.76200054881773, -49.77024806851624 18.661751268374392, -50.29304775146059 18.506587066708043 M-50.29304775146059 18.506587066708043 C-50.75275554886579 18.337410347770636, -51.21246334627099 18.168233628833228, -51.4661440951478 18.074876768247425 M-50.29304775146059 18.506587066708043 C-50.65311134154424 18.37408033716592, -51.013174931627894 18.241573607623796, -51.4661440951478 18.074876768247425 M-51.4661440951478 18.074876768247425 C-51.75028007206688 17.949098199859634, -52.03441604898596 17.823319631471843, -52.60917041279238 17.568892924097174 M-51.4661440951478 18.074876768247425 C-51.794364794670784 17.929583200889716, -52.12258549419377 17.784289633532012, -52.60917041279238 17.568892924097174 M-52.60917041279238 17.568892924097174 C-52.93326381644307 17.39981360300434, -53.25735722009377 17.230734281911506, -53.71742976407678 16.990714730406097 M-52.60917041279238 17.568892924097174 C-52.97537194120964 17.377845821285167, -53.341573469626894 17.186798718473156, -53.71742976407678 16.990714730406097 M-53.71742976407678 16.990714730406097 C-53.99533833126767 16.822244923802963, -54.27324689845855 16.653775117199825, -54.786368073605686 16.3427180453909 M-53.71742976407678 16.990714730406097 C-53.93720530934538 16.85748550331981, -54.15698085461397 16.724256276233525, -54.786368073605686 16.3427180453909 M-54.786368073605686 16.3427180453909 C-55.01391771356341 16.183989267021545, -55.24146735352113 16.02526048865219, -55.81159284457871 15.627565626425156 M-54.786368073605686 16.3427180453909 C-55.02516415697196 16.176144234950424, -55.26396024033824 16.009570424509953, -55.81159284457871 15.627565626425156 M-55.81159284457871 15.627565626425156 C-56.11396233909016 15.386434000942455, -56.416331833601596 15.145302375459753, -56.788891208501866 14.848196188198125 M-55.81159284457871 15.627565626425156 C-56.187301429567185 15.327948027922181, -56.563010014555665 15.028330429419208, -56.788891208501866 14.848196188198125 M-56.788891208501866 14.848196188198125 C-57.03606962477362 14.623715290522636, -57.28324804104537 14.399234392847145, -57.714247236767974 14.007812326905697 M-56.788891208501866 14.848196188198125 C-56.99174445887394 14.6639702334131, -57.19459770924601 14.479744278628074, -57.714247236767974 14.007812326905697 M-57.714247236767974 14.007812326905697 C-57.95255532818263 13.761739657061888, -58.19086341959729 13.51566698721808, -58.583858442968655 13.109867360095677 M-57.714247236767974 14.007812326905697 C-58.01123953842641 13.701143391921926, -58.308231840084844 13.394474456938156, -58.583858442968655 13.109867360095677 M-58.583858442968655 13.109867360095677 C-58.8417642285035 12.806916549151515, -59.09967001403835 12.50396573820735, -59.394151408126575 12.158051136245307 M-58.583858442968655 13.109867360095677 C-58.75468898390691 12.909200086176453, -58.925519524845164 12.708532812257229, -59.394151408126575 12.158051136245307 M-59.394151408126575 12.158051136245307 C-59.666796471519376 11.792731589775208, -59.93944153491218 11.427412043305107, -60.141796464640635 11.156274872382316 M-59.394151408126575 12.158051136245307 C-59.65747193640377 11.805225617347494, -59.920792464680964 11.452400098449683, -60.141796464640635 11.156274872382316 M-60.141796464640635 11.156274872382316 C-60.29201261017876 10.92550253415273, -60.44222875571688 10.694730195923146, -60.82372137860425 10.108655082055249 M-60.141796464640635 11.156274872382316 C-60.362534241506744 10.817162370723413, -60.583272018372845 10.47804986906451, -60.82372137860425 10.108655082055249 M-60.82372137860425 10.108655082055249 C-61.02206504151991 9.756475824074743, -61.22040870443556 9.404296566094237, -61.437123974273504 9.019496659696289 M-60.82372137860425 10.108655082055249 C-61.05061798638785 9.705777179162522, -61.27751459417145 9.302899276269796, -61.437123974273504 9.019496659696289 M-61.437123974273504 9.019496659696289 C-61.592810490755255 8.696210277064123, -61.748497007237 8.372923894431958, -61.97948364880834 7.893275190886686 M-61.437123974273504 9.019496659696289 C-61.58496588114583 8.712499776765858, -61.73280778801815 8.405502893835427, -61.97948364880834 7.893275190886686 M-61.97948364880834 7.893275190886686 C-62.07970692986001 7.645721749003745, -62.17993021091168 7.398168307120805, -62.448571729970325 6.73461856121551 M-61.97948364880834 7.893275190886686 C-62.1457908003527 7.4824933112420835, -62.31209795189706 7.07171143159748, -62.448571729970325 6.73461856121551 M-62.448571729970325 6.73461856121551 C-62.605577007501225 6.261743680686254, -62.762582285032124 5.7888688001569975, -62.84246063421488 5.5482879393051325 M-62.448571729970325 6.73461856121551 C-62.540230392966635 6.458557272095329, -62.63188905596295 6.182495982975148, -62.84246063421488 5.5482879393051325 M-62.84246063421488 5.5482879393051325 C-62.947463956836074 5.147864761422627, -63.05246727945727 4.747441583540123, -63.15953178754556 4.339158212148136 M-62.84246063421488 5.5482879393051325 C-62.96168361056459 5.0936390589188765, -63.0809065869143 4.6389901785326195, -63.15953178754556 4.339158212148136 M-63.15953178754556 4.339158212148136 C-63.22971663606935 3.9787738485514863, -63.29990148459313 3.618389484954837, -63.398482276581774 3.112197953150904 M-63.15953178754556 4.339158212148136 C-63.24185083163301 3.916467318895228, -63.32416987572045 3.49377642564232, -63.398482276581774 3.112197953150904 M-63.398482276581774 3.112197953150904 C-63.461138793512916 2.6262463807617156, -63.52379531044406 2.140294808372527, -63.55833020250937 1.872449005199809 M-63.398482276581774 3.112197953150904 C-63.44275291546005 2.7688436202374973, -63.487023554338315 2.4254892873240905, -63.55833020250937 1.872449005199809 M-63.55833020250937 1.872449005199809 C-63.58962774404662 1.3849645328362263, -63.62092528558388 0.8974800604726434, -63.63841871591342 0.6250057626472781 M-63.55833020250937 1.872449005199809 C-63.584076619378344 1.471427780331887, -63.60982303624732 1.0704065554639648, -63.63841871591342 0.6250057626472781 M-63.63841871591342 0.6250057626472781 C-63.63841871591342 0.14956578712938073, -63.63841871591342 -0.3258741883885167, -63.63841871591342 -0.6250057626472687 M-63.63841871591342 0.6250057626472781 C-63.63841871591342 0.13293384638398287, -63.63841871591342 -0.3591380698793124, -63.63841871591342 -0.6250057626472687 M-63.63841871591342 -0.6250057626472687 C-63.61266676038575 -1.0261132565950992, -63.586914804858075 -1.4272207505429297, -63.55833020250937 -1.8724490051997822 M-63.63841871591342 -0.6250057626472687 C-63.60950602608304 -1.0753442446585715, -63.58059333625266 -1.5256827266698743, -63.55833020250937 -1.8724490051997822 M-63.55833020250937 -1.8724490051997822 C-63.50033799635159 -2.322225104303083, -63.44234579019382 -2.7720012034063846, -63.398482276581774 -3.112197953150895 M-63.55833020250937 -1.8724490051997822 C-63.5254790493707 -2.127236061749314, -63.49262789623204 -2.3820231182988465, -63.398482276581774 -3.112197953150895 M-63.398482276581774 -3.112197953150895 C-63.30359575018632 -3.5994202119171206, -63.20870922379086 -4.086642470683346, -63.15953178754556 -4.339158212148126 M-63.398482276581774 -3.112197953150895 C-63.32013994027403 -3.5144692924325205, -63.24179760396629 -3.9167406317141458, -63.15953178754556 -4.339158212148126 M-63.15953178754556 -4.339158212148126 C-63.04513287680477 -4.775410839604318, -62.930733966063976 -5.21166346706051, -62.84246063421489 -5.548287939305123 M-63.15953178754556 -4.339158212148126 C-63.06379434453981 -4.704246575199321, -62.96805690153406 -5.069334938250518, -62.84246063421489 -5.548287939305123 M-62.84246063421489 -5.548287939305123 C-62.697011416928355 -5.986357807586494, -62.55156219964183 -6.4244276758678645, -62.44857172997033 -6.734618561215485 M-62.84246063421489 -5.548287939305123 C-62.75132592295285 -5.8227711692820305, -62.660191211690815 -6.097254399258939, -62.44857172997033 -6.734618561215485 M-62.44857172997033 -6.734618561215485 C-62.33312618823586 -7.019771281287349, -62.21768064650138 -7.304924001359214, -61.97948364880834 -7.893275190886676 M-62.44857172997033 -6.734618561215485 C-62.30329892320734 -7.09344520257872, -62.15802611644435 -7.452271843941955, -61.97948364880834 -7.893275190886676 M-61.97948364880834 -7.893275190886676 C-61.80791557781306 -8.249539961277016, -61.636347506817785 -8.605804731667353, -61.437123974273504 -9.019496659696282 M-61.97948364880834 -7.893275190886676 C-61.833365864682314 -8.196691896044115, -61.68724808055628 -8.500108601201553, -61.437123974273504 -9.019496659696282 M-61.437123974273504 -9.019496659696282 C-61.30127292725056 -9.260713950095722, -61.16542188022762 -9.501931240495164, -60.82372137860425 -10.108655082055243 M-61.437123974273504 -9.019496659696282 C-61.292378126051815 -9.276507570320387, -61.14763227783013 -9.533518480944494, -60.82372137860425 -10.108655082055243 M-60.82372137860425 -10.108655082055243 C-60.58663411886338 -10.472884779860658, -60.34954685912251 -10.837114477666073, -60.14179646464064 -11.156274872382308 M-60.82372137860425 -10.108655082055243 C-60.61909863695652 -10.423010562125858, -60.41447589530879 -10.737366042196474, -60.14179646464064 -11.156274872382308 M-60.14179646464064 -11.156274872382308 C-59.928035530596595 -11.442695049979623, -59.71427459655255 -11.729115227576937, -59.39415140812659 -12.158051136245302 M-60.14179646464064 -11.156274872382308 C-59.85777574036886 -11.536836768086221, -59.57375501609708 -11.917398663790133, -59.39415140812659 -12.158051136245302 M-59.39415140812659 -12.158051136245302 C-59.19720621821558 -12.389394162813547, -59.000261028304564 -12.620737189381792, -58.58385844296866 -13.10986736009567 M-59.39415140812659 -12.158051136245302 C-59.08386938380415 -12.522526057561779, -58.773587359481716 -12.887000978878255, -58.58385844296866 -13.10986736009567 M-58.58385844296866 -13.10986736009567 C-58.35347628650969 -13.34775585136637, -58.12309413005072 -13.585644342637073, -57.714247236767996 -14.007812326905677 M-58.58385844296866 -13.10986736009567 C-58.373432238694406 -13.327149692321504, -58.16300603442015 -13.544432024547339, -57.714247236767996 -14.007812326905677 M-57.714247236767996 -14.007812326905677 C-57.37912126733787 -14.312164865394859, -57.04399529790775 -14.61651740388404, -56.78889120850189 -14.848196188198107 M-57.714247236767996 -14.007812326905677 C-57.354356620807316 -14.334655462137265, -56.99446600484664 -14.661498597368855, -56.78889120850189 -14.848196188198107 M-56.78889120850189 -14.848196188198107 C-56.531702309583 -15.053297491001889, -56.27451341066411 -15.25839879380567, -55.81159284457872 -15.627565626425149 M-56.78889120850189 -14.848196188198107 C-56.4374974686112 -15.128423344780796, -56.086103728720516 -15.408650501363484, -55.81159284457872 -15.627565626425149 M-55.81159284457872 -15.627565626425149 C-55.42272436217222 -15.898823445906636, -55.03385587976572 -16.170081265388124, -54.786368073605715 -16.342718045390885 M-55.81159284457872 -15.627565626425149 C-55.54336962050617 -15.814666536341932, -55.27514639643361 -16.001767446258715, -54.786368073605715 -16.342718045390885 M-54.786368073605715 -16.342718045390885 C-54.399542307550966 -16.577214098013798, -54.012716541496225 -16.81171015063671, -53.71742976407679 -16.99071473040609 M-54.786368073605715 -16.342718045390885 C-54.48502358918104 -16.525394842745882, -54.18367910475636 -16.708071640100876, -53.71742976407679 -16.99071473040609 M-53.71742976407679 -16.99071473040609 C-53.28550626982702 -17.216048940695995, -52.85358277557724 -17.441383150985903, -52.60917041279239 -17.56889292409717 M-53.71742976407679 -16.99071473040609 C-53.427397536708 -17.14202435764988, -53.1373653093392 -17.293333984893675, -52.60917041279239 -17.56889292409717 M-52.60917041279239 -17.56889292409717 C-52.28632782941833 -17.71180575897189, -51.96348524604428 -17.854718593846616, -51.466144095147804 -18.07487676824742 M-52.60917041279239 -17.56889292409717 C-52.209175942541464 -17.745958610662875, -51.80918147229054 -17.923024297228576, -51.466144095147804 -18.07487676824742 M-51.466144095147804 -18.07487676824742 C-51.22296133820923 -18.16437027075758, -50.97977858127066 -18.25386377326774, -50.29304775146062 -18.506587066708033 M-51.466144095147804 -18.07487676824742 C-51.180999216944194 -18.17981271927671, -50.89585433874058 -18.284748670305998, -50.29304775146062 -18.506587066708033 M-50.29304775146062 -18.506587066708033 C-49.962024661734425 -18.604832982163114, -49.63100157200823 -18.70307889761819, -49.09470188623541 -18.862249829261067 M-50.29304775146062 -18.506587066708033 C-49.927625649701795 -18.615042428370298, -49.56220354794298 -18.72349779003256, -49.09470188623541 -18.862249829261067 M-49.09470188623541 -18.862249829261067 C-48.631638396405855 -18.967941049042995, -48.16857490657629 -19.073632268824923, -47.876030759676766 -19.140403561325773 M-49.09470188623541 -18.862249829261067 C-48.74969998876508 -18.940994261010893, -48.40469809129474 -19.019738692760715, -47.876030759676766 -19.140403561325773 M-47.876030759676766 -19.140403561325773 C-47.51100629550843 -19.199417885885513, -47.145981831340094 -19.25843221044525, -46.64204215284788 -19.3399052695533 M-47.876030759676766 -19.140403561325773 C-47.51114616772049 -19.19939527243099, -47.146261575764214 -19.25838698353621, -46.64204215284788 -19.3399052695533 M-46.64204215284788 -19.3399052695533 C-46.285621072333086 -19.374288782531497, -45.929199991818294 -19.408672295509696, -45.3978067896239 -19.45993515863156 M-46.64204215284788 -19.3399052695533 C-46.278011742259714 -19.375022845452115, -45.91398133167154 -19.410140421350935, -45.3978067896239 -19.45993515863156 M-45.3978067896239 -19.45993515863156 C-45.141631749394016 -19.468150193557264, -44.88545670916414 -19.47636522848297, -44.14843750000001 -19.5 M-45.3978067896239 -19.45993515863156 C-45.04038347896637 -19.471397028522077, -44.68296016830884 -19.482858898412594, -44.14843750000001 -19.5 M-44.14843750000001 -19.5 C-44.14843750000001 -19.5, -44.1484375 -19.5, -44.1484375 -19.5 M-44.14843750000001 -19.5 C-44.14843750000001 -19.5, -44.1484375 -19.5, -44.1484375 -19.5" stroke="#9370DB" stroke-width="1.3" fill="none" stroke-dasharray="0 0" style=""/></g><g class="label" style="" transform="translate(-51.2734375, -12)"><rect/><foreignObject width="102.546875" height="24"><div xmlns="http://www.w3.org/1999/xhtml" style="display: table-cell; white-space: nowrap; line-height: 1.5; max-width: 200px; text-align: center;"><span class="nodeLabel"><p>User / Chat UI</p></span></div></foreignObject></g></g><g class="node default" id="my-svg-flowchart-ROUTER-2" data-look="classic" transform="translate(727.59765625, 197)"><rect class="basic label-container" style="" x="-169.53125" y="-51" width="339.0625" height="102"/><g class="label" style="" transform="translate(-139.53125, -36)"><rect/><foreignObject width="279.0625" height="72"><div xmlns="http://www.w3.org/1999/xhtml" style="display: table; white-space: break-spaces; line-height: 1.5; max-width: 200px; text-align: center; width: 200px;"><span class="nodeLabel"><p>router node<br />ChatAnthropic.with_structured_output<br />RouteDecision → intent + confidence</p></span></div></foreignObject></g></g><g class="node default" id="my-svg-flowchart-COACH-4" data-look="classic" transform="translate(156.65234375, 373)"><rect class="basic label-container" style="" x="-97.3046875" y="-51" width="194.609375" height="102"/><g class="label" style="" transform="translate(-67.3046875, -36)"><rect/><foreignObject width="134.609375" height="72"><div xmlns="http://www.w3.org/1999/xhtml" style="display: table-cell; white-space: nowrap; line-height: 1.5; max-width: 200px; text-align: center;"><span class="nodeLabel"><p>coach sub-graph<br />Fitness Q&amp;A<br />grounded coaching</p></span></div></foreignObject></g></g><g class="node default" id="my-svg-flowchart-GEN-6" data-look="classic" transform="translate(417.69921875, 373)"><rect class="basic label-container" style="" x="-113.7421875" y="-51" width="227.484375" height="102"/><g class="label" style="" transform="translate(-83.7421875, -36)"><rect/><foreignObject width="167.484375" height="72"><div xmlns="http://www.w3.org/1999/xhtml" style="display: table-cell; white-space: nowrap; line-height: 1.5; max-width: 200px; text-align: center;"><span class="nodeLabel"><p>workout_gen sub-graph<br />search_exercises_tool<br />build_workout_tool</p></span></div></foreignObject></g></g><g class="node default" id="my-svg-flowchart-LOG-8" data-look="classic" transform="translate(697.83203125, 373)"><rect class="basic label-container" style="" x="-116.390625" y="-51" width="232.78125" height="102"/><g class="label" style="" transform="translate(-86.390625, -36)"><rect/><foreignObject width="172.78125" height="72"><div xmlns="http://www.w3.org/1999/xhtml" style="display: table-cell; white-space: nowrap; line-height: 1.5; max-width: 200px; text-align: center;"><span class="nodeLabel"><p>workout_log sub-graph<br />fuzzy exercise matching<br />structured JSON log</p></span></div></foreignObject></g></g><g class="node default" id="my-svg-flowchart-KG-10" data-look="classic" transform="translate(1022.2578125, 373)"><rect class="basic label-container" style="" x="-112.4609375" y="-51" width="224.921875" height="102"/><g class="label" style="" transform="translate(-82.4609375, -36)"><rect/><foreignObject width="164.921875" height="72"><div xmlns="http://www.w3.org/1999/xhtml" style="display: table-cell; white-space: nowrap; line-height: 1.5; max-width: 200px; text-align: center;"><span class="nodeLabel"><p>knowledge_graph node<br />Neo4j GraphRAG<br />injury-aware recs</p></span></div></foreignObject></g></g><g class="node default" id="my-svg-flowchart-CLARIFY-12" data-look="classic" transform="translate(1287.22265625, 373)"><rect class="basic label-container" style="" x="-102.46875" y="-39" width="204.9375" height="78"/><g class="label" style="" transform="translate(-72.46875, -24)"><rect/><foreignObject width="144.9375" height="48"><div xmlns="http://www.w3.org/1999/xhtml" style="display: table-cell; white-space: nowrap; line-height: 1.5; max-width: 200px; text-align: center;"><span class="nodeLabel"><p>clarification node<br />ask user to rephrase</p></span></div></foreignObject></g></g><g class="node default" id="my-svg-flowchart-FB-14" data-look="classic" transform="translate(1535.61328125, 373)"><rect class="basic label-container" style="" x="-95.921875" y="-39" width="191.84375" height="78"/><g class="label" style="" transform="translate(-65.921875, -24)"><rect/><foreignObject width="131.84375" height="48"><div xmlns="http://www.w3.org/1999/xhtml" style="display: table-cell; white-space: nowrap; line-height: 1.5; max-width: 200px; text-align: center;"><span class="nodeLabel"><p>fallback node<br />out-of-scope reply</p></span></div></foreignObject></g></g><g class="node default" id="my-svg-flowchart-AUDIT-16" data-look="classic" transform="translate(727.59765625, 623)"><rect class="basic label-container" style="" x="-130" y="-99" width="260" height="198"/><g class="label" style="" transform="translate(-100, -84)"><rect/><foreignObject width="200" height="168"><div xmlns="http://www.w3.org/1999/xhtml" style="display: table; white-space: break-spaces; line-height: 1.5; max-width: 200px; text-align: center; width: 200px;"><span class="nodeLabel"><p>audit_log<br />per-node: event, model, route<br />latency_ms, tokens_in, tokens_out<br />GET /chat/audit/{session_id}</p></span></div></foreignObject></g></g><g class="node default" id="my-svg-flowchart-RETRIEVAL-28" data-look="classic" transform="translate(1421.18359375, 623)"><rect class="basic label-container" style="" x="-130" y="-75" width="260" height="150"/><g class="label" style="" transform="translate(-100, -60)"><rect/><foreignObject width="200" height="120"><div xmlns="http://www.w3.org/1999/xhtml" style="display: table; white-space: break-spaces; line-height: 1.5; max-width: 200px; text-align: center; width: 200px;"><span class="nodeLabel"><p>retrieval sub-graph<br />member profile · injury traversal<br />vector similarity · preference feedback</p></span></div></foreignObject></g></g><g class="node default" id="my-svg-flowchart-SAFETY-29" data-look="classic" transform="translate(1421.18359375, 860)"><rect class="basic label-container" style="" x="-130" y="-63" width="260" height="126"/><g class="label" style="" transform="translate(-100, -48)"><rect/><foreignObject width="200" height="96"><div xmlns="http://www.w3.org/1999/xhtml" style="display: table; white-space: break-spaces; line-height: 1.5; max-width: 200px; text-align: center; width: 200px;"><span class="nodeLabel"><p>safety gate node<br />hard-filter contraindicated IDs<br />never overrideable by LLM</p></span></div></foreignObject></g></g><g class="node default" id="my-svg-flowchart-EXPLAIN-30" data-look="classic" transform="translate(1421.18359375, 1024)"><rect class="basic label-container" style="" x="-102.1328125" y="-51" width="204.265625" height="102"/><g class="label" style="" transform="translate(-72.1328125, -36)"><rect/><foreignObject width="144.265625" height="72"><div xmlns="http://www.w3.org/1999/xhtml" style="display: table-cell; white-space: nowrap; line-height: 1.5; max-width: 200px; text-align: center;"><span class="nodeLabel"><p>explainability tool<br />graph-path citation<br />'why was X skipped?'</p></span></div></foreignObject></g></g></g></g></g><defs><filter id="my-svg-drop-shadow" height="130%" width="130%"><feDropShadow dx="4" dy="4" stdDeviation="0" flood-opacity="0.06" flood-color="#000000"/></filter></defs><defs><filter id="my-svg-drop-shadow-small" height="150%" width="150%"><feDropShadow dx="2" dy="2" stdDeviation="0" flood-opacity="0.06" flood-color="#000000"/></filter></defs></svg>